<svg width="33" height="32" viewBox="0 0 33 32" fill="none" xmlns="http://www.w3.org/2000/svg">
<g id="undraw_coffee_time_e8cw 1" clip-path="url(#clip0_196_84)">
<g id="Vector" filter="url(#filter0_d_196_84)">
<path d="M16.4997 32C16.1235 32 15.7489 31.9877 15.3854 31.9641C15.0107 31.94 14.6345 31.903 14.2678 31.8543C14.1064 31.8332 13.9604 31.8122 13.8212 31.7901C13.408 31.725 12.9873 31.6424 12.5708 31.5438C12.428 31.5105 12.2888 31.4756 12.1565 31.4397C12.11 31.4279 12.0623 31.415 12.0152 31.4022C11.8142 31.3473 11.6194 31.2903 11.4374 31.2329C11.4258 31.2298 11.412 31.2252 11.3983 31.2211C11.2342 31.1698 11.0628 31.1128 10.8892 31.0517C10.7427 31.0004 10.5945 30.946 10.4363 30.8855C9.91984 30.6879 9.40551 30.4606 8.90759 30.2102C6.26611 28.8802 4.04001 26.8795 2.46845 24.4242C0.854037 21.8986 0 18.9856 0 15.9997C0 11.7259 1.71654 7.70765 4.83266 4.68586C7.94878 1.66406 12.0925 0 16.4997 0C20.907 0 25.0507 1.66406 28.1673 4.68586C31.284 7.70765 33 11.7259 33 15.9997C33 18.511 32.4169 20.915 31.2676 23.1445C30.1712 25.2709 28.5663 27.1689 26.6254 28.6329C25.6999 29.3312 24.6977 29.9347 23.6453 30.4252C23.5262 30.4811 23.3987 30.5381 23.2452 30.6053L23.2283 30.6125C23.2098 30.6207 23.1918 30.6284 23.1733 30.6361C23.0579 30.6859 22.9405 30.7346 22.8246 30.7808L22.7722 30.8024C22.741 30.8152 22.7098 30.8275 22.678 30.8393C22.2526 31.0061 21.816 31.1574 21.3795 31.2873C21.0557 31.3848 20.7165 31.4751 20.3709 31.5556C19.1121 31.8502 17.8094 31.9995 16.4997 31.9995V32ZM16.4997 0.104164C12.1205 0.104164 8.00382 1.75745 4.9078 4.76026C1.81126 7.76101 0.105829 11.7531 0.105829 15.9997C0.105829 18.9666 0.954574 21.8607 2.55946 24.3693C4.12044 26.8087 6.33278 28.7971 8.95733 30.1184C9.45208 30.3672 9.96323 30.593 10.4765 30.7895C10.6337 30.8501 10.7808 30.904 10.9263 30.9548C11.0993 31.0153 11.2692 31.0718 11.4327 31.1231C11.4454 31.1272 11.4575 31.1308 11.4697 31.1344C11.6517 31.1918 11.8449 31.2483 12.0449 31.3032C12.0914 31.316 12.138 31.3288 12.1846 31.3406C12.3163 31.376 12.4544 31.4109 12.5962 31.4443C13.01 31.5423 13.4275 31.6244 13.8387 31.689C13.9768 31.7111 14.1218 31.7321 14.2821 31.7532C14.6461 31.8014 15.0197 31.8384 15.3922 31.862C15.7531 31.8856 16.1256 31.8979 16.4992 31.8979C17.8004 31.8979 19.0947 31.7496 20.3461 31.4571C20.6895 31.3771 21.0266 31.2873 21.3483 31.1908C21.7816 31.0615 22.2161 30.9117 22.6389 30.7454C22.6706 30.7336 22.7008 30.7213 22.7309 30.709L22.7934 30.6833C22.905 30.6387 23.0182 30.5915 23.1304 30.5432C23.1495 30.5355 23.1669 30.5278 23.1844 30.5201L23.2013 30.513C23.3537 30.4463 23.4802 30.3893 23.5987 30.3339C24.6443 29.8464 25.6407 29.2471 26.5598 28.5528C28.488 27.0976 30.0828 25.2119 31.1723 23.0993C32.3142 20.8842 32.8936 18.4956 32.8936 16.0003C32.8936 11.7536 31.1882 7.76153 28.0917 4.75923C24.9962 1.75591 20.8789 0.102625 16.4997 0.102625V0.104164Z" fill="#696969"/>
</g>
<path id="Vector_2" d="M15.0012 9.12535C15.0012 9.12535 12.103 9.44246 11.9162 13.7943C11.7607 17.4205 11.4421 19.4417 12.9634 20.1981C13.5074 20.4685 14.1466 20.4921 14.7276 20.3074L20.9381 18.3272C20.9381 18.3272 21.0318 11.7998 18.8814 10.2132C16.7309 8.62659 15.0017 9.12535 15.0017 9.12535H15.0012Z" fill="#2F2E41"/>
<path id="Vector_3" d="M18.4248 19.1287L15.2817 20.1309V15.7437H18.1333L18.4248 19.1287Z" fill="#F6A6A9"/>
<path id="Vector_4" d="M22.6591 30.7922C22.2358 30.9585 21.804 31.1078 21.3643 31.2391C21.0335 31.3387 20.6981 31.4275 20.3589 31.5065C19.1212 31.7959 17.8285 31.9488 16.4998 31.9488C16.1263 31.9488 15.7559 31.937 15.3892 31.9129C15.014 31.8888 14.6426 31.8523 14.2753 31.8036C14.1261 31.7841 13.9779 31.763 13.8303 31.7394C13.4096 31.6732 12.9937 31.5906 12.5842 31.4936C12.4461 31.4613 12.3085 31.4269 12.1715 31.39C12.1244 31.3782 12.0773 31.3654 12.0307 31.3525C11.8376 31.2997 11.6455 31.2438 11.455 31.1837C11.4423 31.1801 11.4291 31.176 11.4164 31.1719C11.246 31.1186 11.0767 31.0621 10.9084 31.0031C10.7571 30.9502 10.6068 30.8948 10.457 30.8374L13.7224 20.4153L13.8584 19.9817L14.3409 18.4418L14.3446 18.4295L14.3483 18.4182H20.0509L20.089 18.5983L21.024 23.0338L21.6976 26.2305L22.3601 29.3724L22.6326 30.6655L22.6591 30.7922Z" fill="#DDDEDF"/>
<path id="Vector_5" d="M15.2479 18.4208L14.8643 19.9617L14.8108 20.1777L14.7828 20.2901L13.0811 27.1305L12.0307 31.3525C11.8376 31.2997 11.6455 31.2437 11.455 31.1837C11.4423 31.1801 11.4291 31.176 11.4164 31.1719C11.246 31.1185 11.0767 31.0621 10.9084 31.0031C10.7571 30.9502 10.6068 30.8948 10.457 30.8373C9.9353 30.6377 9.4268 30.4125 8.93311 30.1641C10.0353 24.8738 11.1417 19.6723 11.3217 19.2366C11.4005 19.0452 11.6212 18.8985 11.9201 18.7856C12.0064 18.7527 12.0995 18.723 12.1974 18.6958C12.8392 18.5182 13.6959 18.4531 14.3383 18.43H14.3447C14.6008 18.4213 14.8225 18.4187 14.9823 18.4187C15.1421 18.4187 15.2479 18.4213 15.2479 18.4213V18.4208Z" fill="#DDDEDF"/>
<path id="Vector_6" d="M15.6706 16.9582C17.4003 16.9582 18.8026 15.5984 18.8026 13.921C18.8026 12.2436 17.4003 10.8838 15.6706 10.8838C13.9408 10.8838 12.5386 12.2436 12.5386 13.921C12.5386 15.5984 13.9408 16.9582 15.6706 16.9582Z" fill="#F6A6A9"/>
<path id="Vector_7" d="M14.8145 10.2588C14.8145 10.2588 13.0911 17.0449 15.0076 20.218L12.3079 19.6618C12.3079 19.6618 11.2618 12.2338 13.3657 10.8838L14.815 10.2588H14.8145Z" fill="#2F2E41"/>
<path id="Vector_8" opacity="0.1" d="M14.2753 31.8035C14.126 31.784 13.9779 31.763 13.8302 31.7394C13.4096 31.6732 12.9937 31.5906 12.5841 31.4936C12.446 31.4613 12.3084 31.4269 12.1714 31.3899L12.3476 30.0794L12.818 26.5784L13.0297 27.3368L13.2244 28.0351L14.2753 31.8035Z" fill="#272223"/>
<path id="Vector_9" opacity="0.1" d="M23.1527 30.5895C23.0374 30.6393 22.9215 30.6875 22.8045 30.7342C22.7871 30.7414 22.7696 30.7486 22.7522 30.7558C22.7215 30.7681 22.6908 30.7804 22.6596 30.7922C22.2362 30.9584 21.8045 31.1078 21.3647 31.2391C20.3202 30.5223 19.5154 29.5237 19.0508 28.3672L18.8032 27.7509L17.2168 23.2949L20.7314 26.8709L21.3737 27.8571L22.3606 29.3719L23.1533 30.589H23.1527V30.5895Z" fill="#272223"/>
<path id="Vector_10" d="M26.5932 28.5929C25.6757 29.2856 24.6809 29.886 23.6226 30.3796C23.4908 30.4412 23.3575 30.5007 23.2236 30.5592C23.1998 30.5695 23.1765 30.5797 23.1527 30.5895C23.0374 30.6392 22.9215 30.6875 22.8045 30.7342C22.7469 30.7126 22.6897 30.6895 22.6331 30.6654C22.0526 30.4191 21.5341 30.0445 21.0764 29.6068C20.4615 29.0173 19.9577 28.3122 19.5625 27.6462C19.3678 27.3183 19.1995 26.9997 19.0571 26.7092L19.055 26.7046C18.6714 25.918 18.4814 25.3392 18.4814 25.3392L17.9708 23.3057L17.8306 22.7479L17.0326 19.5727L16.7427 18.4181L17.1755 18.3997L18.3581 18.3494L19.6625 18.2935C19.963 18.3155 20.2562 18.3699 20.5382 18.4551C21.4436 18.7245 22.2309 19.3002 22.7479 20.0925C24.1692 22.2717 26.445 26.1155 26.5937 28.5929H26.5932Z" fill="#DDDEDF"/>
<path id="Vector_11" d="M11.7326 17.0034C12.4189 16.7637 14.2354 16.7627 15.0503 17.0295C15.2085 17.0814 15.3043 17.2374 15.2768 17.3969L15.2445 17.5863C15.3154 17.576 15.3847 17.5565 15.4504 17.5273C15.6446 17.4411 16.0271 17.3241 16.4134 17.5108C16.6833 17.6412 16.8732 17.887 16.9399 18.1728C17.0992 18.8563 16.6975 19.2344 16.6975 19.2344L16.1626 19.7214C15.7144 20.1288 15.2255 20.4921 14.7032 20.8051L14.6926 20.8113L14.8831 19.6998C14.9905 19.883 15.2334 19.9431 15.4181 19.8322C15.8848 19.5521 16.6473 18.9907 16.5547 18.3534C16.4901 17.909 16.2356 17.8146 15.9911 17.8346C15.7176 17.8572 15.4789 18.024 15.362 18.2646C15.3339 18.3221 15.2879 18.3693 15.2308 18.4001L15.0932 18.473L14.69 20.8287C14.672 20.9344 14.6021 21.0257 14.5032 21.073C13.555 21.524 12.5316 21.29 12.1776 21.1848C12.0967 21.1607 12.0273 21.1089 11.9839 21.0381L11.9077 20.9154C11.8813 20.8734 11.8654 20.8256 11.8601 20.7769L11.5082 17.3482C11.4929 17.1968 11.5855 17.0552 11.7331 17.0034H11.7326Z" fill="#6C63FF"/>
<path id="Vector_12" d="M14.9694 17.1855C14.9694 17.2661 14.2556 17.3313 13.3751 17.3313C12.4946 17.3313 11.7808 17.2661 11.7808 17.1855C11.7808 17.105 12.4946 17.0398 13.3751 17.0398C14.2556 17.0398 14.9694 17.105 14.9694 17.1855Z" fill="#DEDFE0"/>
<path id="uuid-4649cc22-8d47-4d9d-b2d1-a070273bfea6-109" d="M15.7403 20.404C15.1402 19.5676 15.1185 18.5839 15.6916 18.2063C16.2647 17.8286 17.215 18.2001 17.8151 19.037C18.0595 19.368 18.2151 19.7518 18.2691 20.1567L20.7624 23.7316L18.9326 24.8554L16.6689 21.2122C16.2938 21.0192 15.9752 20.7421 15.7403 20.4045V20.404Z" fill="#F6A6A9"/>
<path id="Vector_13" d="M17.2163 23.2953L19.2768 21.4563L23.3507 25.1349L19.562 27.6461L17.2163 23.2953Z" fill="#DDDEDF"/>
<path id="Vector_14" opacity="0.1" d="M22.9908 25.6448L23.1527 26.8512L22.0732 25.6448V24.4282L22.9908 25.6448Z" fill="#272223"/>
</g>
<defs>
<filter id="filter0_d_196_84" x="-4.3" y="-2.3" width="45.6" height="44.6" filterUnits="userSpaceOnUse" color-interpolation-filters="sRGB">
<feFlood flood-opacity="0" result="BackgroundImageFix"/>
<feColorMatrix in="SourceAlpha" type="matrix" values="0 0 0 0 0 0 0 0 0 0 0 0 0 0 0 0 0 0 127 0" result="hardAlpha"/>
<feOffset dx="2" dy="4"/>
<feGaussianBlur stdDeviation="3.15"/>
<feComposite in2="hardAlpha" operator="out"/>
<feColorMatrix type="matrix" values="0 0 0 0 0 0 0 0 0 0 0 0 0 0 0 0 0 0 0.25 0"/>
<feBlend mode="normal" in2="BackgroundImageFix" result="effect1_dropShadow_196_84"/>
<feBlend mode="normal" in="SourceGraphic" in2="effect1_dropShadow_196_84" result="shape"/>
</filter>
<clipPath id="clip0_196_84">
<rect width="33" height="32" fill="white"/>
</clipPath>
</defs>
</svg>
