<svg width="48" height="48" viewBox="0 0 48 48" fill="none" xmlns="http://www.w3.org/2000/svg">
<g id="icons8-c-programming 1">
<path id="Vector" fill-rule="evenodd" clip-rule="evenodd" d="M22.903 3.28599C23.582 2.90499 24.418 2.90499 25.096 3.28599C28.451 5.16899 38.547 10.837 41.903 12.72C42.582 13.1 43 13.804 43 14.566C43 18.332 43 29.667 43 33.433C43 34.195 42.582 34.899 41.903 35.28C38.548 37.163 28.452 42.831 25.096 44.714C24.417 45.095 23.581 45.095 22.903 44.714C19.548 42.831 9.452 37.163 6.096 35.28C5.418 34.899 5 34.196 5 33.434C5 29.668 5 18.333 5 14.567C5 13.805 5.418 13.101 6.097 12.72C9.451 10.837 19.549 5.16899 22.903 3.28599Z" fill="url(#paint0_linear_158_1286)"/>
<path id="Vector_2" fill-rule="evenodd" clip-rule="evenodd" d="M5.304 34.404C5.038 34.048 5 33.71 5 33.255C5 29.511 5 18.241 5 14.496C5 13.738 5.417 13.038 6.094 12.66C9.437 10.788 19.499 5.15304 22.842 3.28004C23.519 2.90104 24.436 2.90904 25.113 3.28804C28.456 5.16004 38.484 10.747 41.827 12.619C42.097 12.771 42.303 12.954 42.487 13.195L5.304 34.404Z" fill="url(#paint1_linear_158_1286)"/>
<path id="Vector_3" fill-rule="evenodd" clip-rule="evenodd" d="M24 10C31.727 10 38 16.273 38 24C38 31.727 31.727 38 24 38C16.273 38 10 31.727 10 24C10 16.273 16.273 10 24 10ZM24 17C27.863 17 31 20.136 31 24C31 27.863 27.863 31 24 31C20.137 31 17 27.863 17 24C17 20.136 20.136 17 24 17Z" fill="white"/>
<path id="Vector_4" fill-rule="evenodd" clip-rule="evenodd" d="M42.485 13.2051C43.001 13.6881 42.991 14.4161 42.991 14.9891C42.991 18.7841 42.959 29.5781 43 33.3731C43.004 33.7691 42.873 34.1861 42.677 34.5001L23.593 24.0001L42.485 13.2051Z" fill="url(#paint2_linear_158_1286)"/>
<path id="Vector_5" opacity="0.05" d="M24 10C29.128 10 33.602 12.771 36.041 16.887L29.968 20.357C28.737 18.347 26.527 17 24 17C20.136 17 17 20.136 17 24C17 27.863 20.137 31 24 31C26.57 31 28.812 29.608 30.029 27.541L36.161 30.915C33.75 35.142 29.21 38 24 38C16.273 38 10 31.727 10 24C10 16.273 16.273 10 24 10ZM24 9C15.729 9 9 15.729 9 24C9 32.271 15.729 39 24 39C29.367 39 34.36 36.092 37.03 31.41L37.533 30.528L36.643 30.038L30.511 26.664L29.66 26.196L29.167 27.033C28.09 28.863 26.11 30 24 30C20.692 30 18 27.308 18 24C18 20.692 20.692 18 24 18C26.099 18 28.011 19.076 29.115 20.879L29.622 21.707L30.464 21.226L36.537 17.756L37.419 17.252L36.901 16.378C34.205 11.827 29.262 9 24 9Z" fill="black"/>
<path id="Vector_6" opacity="0.07" d="M24 10C29.128 10 33.602 12.771 36.041 16.887L29.968 20.357C28.737 18.347 26.527 17 24 17C20.136 17 17 20.136 17 24C17 27.863 20.137 31 24 31C26.57 31 28.812 29.608 30.029 27.541L36.161 30.915C33.75 35.142 29.21 38 24 38C16.273 38 10 31.727 10 24C10 16.273 16.273 10 24 10ZM24 9.5C16.005 9.5 9.5 16.005 9.5 24C9.5 31.995 16.005 38.5 24 38.5C29.188 38.5 34.014 35.688 36.595 31.163L36.847 30.722L36.402 30.477L30.27 27.103L29.845 26.869L29.599 27.287C28.431 29.269 26.286 30.5 24 30.5C20.416 30.5 17.5 27.584 17.5 24C17.5 20.416 20.416 17.5 24 17.5C26.275 17.5 28.346 18.666 29.542 20.618L29.795 21.032L30.216 20.791L36.289 17.321L36.73 17.069L36.471 16.632C33.864 12.233 29.086 9.5 24 9.5Z" fill="black"/>
</g>
<defs>
<linearGradient id="paint0_linear_158_1286" x1="22.48" y1="19.823" x2="31.833" y2="45.52" gradientUnits="userSpaceOnUse">
<stop stop-color="#3940A4"/>
<stop offset="1" stop-color="#293091"/>
</linearGradient>
<linearGradient id="paint1_linear_158_1286" x1="16.43" y1="3.38204" x2="26.687" y2="31.562" gradientUnits="userSpaceOnUse">
<stop stop-color="#7B83EB"/>
<stop offset="1" stop-color="#5961C3"/>
</linearGradient>
<linearGradient id="paint2_linear_158_1286" x1="31.031" y1="12.8651" x2="39.734" y2="36.7771" gradientUnits="userSpaceOnUse">
<stop stop-color="#5C65D6"/>
<stop offset="0.999" stop-color="#464EB0"/>
</linearGradient>
</defs>
</svg>
