<svg width="50" height="50" viewBox="0 0 50 50" fill="none" xmlns="http://www.w3.org/2000/svg">
<g id="icons8-c-programming 3">
<path id="Vector" d="M25.049 5.20833C23.4292 5.21354 22.3063 5.35624 20.949 5.59062C16.9407 6.28854 16.2104 7.75416 16.2104 10.4552V14.5833H25.5854V16.6667H15.8542H11.3229C8.57711 16.6667 6.17399 17.9604 5.41253 21.0615C4.55211 24.6208 4.51357 26.85 5.41253 30.5667C6.09482 33.3385 7.59795 35.4167 10.3448 35.4167H14.1282V30.1C14.1282 27.0104 16.9261 23.9583 20.1323 23.9583H27.6698C30.2979 23.9583 32.8782 22.0187 32.8782 19.399V10.4552C32.8782 7.91458 31.0459 6.01458 28.4844 5.58854C28.5479 5.58229 26.6552 5.20208 25.049 5.20833ZM19.8573 9.37499C20.7125 9.37499 21.4198 10.0802 21.4198 10.9396C21.4198 11.8073 20.7125 12.5 19.8573 12.5C18.9854 12.5 18.2948 11.8083 18.2948 10.9396C18.2948 10.0833 18.9854 9.37499 19.8573 9.37499Z" fill="#0277BD"/>
<path id="Vector_2" d="M24.0396 44.7916C25.6594 44.7864 26.7823 44.6437 28.1396 44.4093C32.148 43.7114 32.8782 42.2458 32.8782 39.5447V35.4166H23.5032V33.3333H33.2355H37.7667C40.5125 33.3333 42.9157 32.0395 43.6771 28.9385C44.5375 25.3791 44.5761 23.1499 43.6771 19.4333C42.9938 16.6614 41.4907 14.5833 38.7438 14.5833H34.9605V19.8999C34.9605 22.9895 32.1625 26.0416 28.9563 26.0416H21.4188C18.7907 26.0416 16.2104 27.9812 16.2104 30.601V39.5447C16.2104 42.0853 18.0427 43.9853 20.6042 44.4114C20.5407 44.4176 22.4334 44.7978 24.0396 44.7916ZM29.2323 40.6249C28.3771 40.6249 27.6698 39.9197 27.6698 39.0603C27.6698 38.1926 28.3771 37.4999 29.2323 37.4999C30.1042 37.4999 30.7948 38.1916 30.7948 39.0603C30.7948 39.9166 30.1032 40.6249 29.2323 40.6249Z" fill="#FFC107"/>
</g>
</svg>
